<svg xmlns="http://www.w3.org/2000/svg" viewBox="0 0 600 536">
  <g transform="translate(0,536) scale(0.1,-0.1)" fill="white" stroke="none">
    <path d="M1984 4803 c-27 -32 -67 -79 -89 -104 -22 -25 -71 -83 -110 -129 -74 -88 -130 -153 -206 -242 -26 -29 -80 -94 -120 -143 -41 -50 -109 -131 -151 -180 -115 -134 -271 -319 -280 -330 -6 -9 -77 -91 -132 -155 -12 -14 -44 -52 -71 -85 -27 -33 -67 -79 -89 -102 -22 -24 -38 -45 -35 -47 2 -3 51 -1 109 4 58 5 159 10 225 12 l120 3 3 -307 c3 -333 3 -329 -49 -290 -107 81 -275 127 -403 110 -176 -24 -317 -157 -356 -339 -18 -84 -9 -259 19 -338 47 -135 110 -239 204 -341 68 -73 124 -115 221 -165 97 -51 158 -65 276 -65 l90 0 2 -402 3 -403 35 -6 c101 -20 331 -62 375 -69 28 -4 77 -13 110 -19 33 -7 85 -16 115 -21 58 -10 69 -12 300 -55 80 -15 168 -31 195 -35 60 -10 210 -37 435 -79 91 -17 194 -36 230 -42 36 -6 81 -15 100 -19 19 -5 53 -11 75 -14 22 -3 97 -16 168 -29 125 -23 129 -23 200 -6 39 10 117 27 172 39 55 12 116 25 135 30 19 5 64 16 100 24 111 24 343 77 383 87 94 23 357 84 452 104 132 28 304 68 385 88 l85 22 -4 1251 c-4 1225 -4 1252 15 1257 17 6 144 19 294 31 119 10 160 18 152 31 -4 7 -37 46 -73 86 -36 41 -130 146 -209 234 -78 88 -175 196 -215 240 -39 44 -87 98 -106 120 -32 37 -91 103 -149 165 -14 15 -59 64 -100 111 -41 46 -77 86 -80 89 -3 3 -57 64 -120 135 -63 72 -137 155 -165 185 -27 31 -71 79 -97 108 l-47 52 -1140 0 -1139 0 -48 -57z m508 -441 c86 -97 172 -193 190 -213 18 -19 78 -86 133 -149 55 -63 134 -150 175 -195 41 -44 83 -91 95 -104 11 -14 47 -55 80 -91 139 -152 222 -246 248 -278 l27 -35 0 -1405 0 -1405 -37 7 c-21 3 -60 10 -88 15 -27 6 -88 17 -135 24 -73 13 -220 39 -425 77 -27 5 -99 18 -160 29 -225 42 -392 72 -455 82 -36 6 -81 15 -101 20 -20 5 -47 9 -59 9 -13 0 -37 4 -54 9 -17 6 -74 17 -126 26 -52 9 -158 28 -235 41 -77 14 -164 29 -194 34 -30 5 -58 15 -63 22 -4 7 -8 177 -8 378 l0 365 53 52 c91 88 130 193 131 348 1 55 -3 119 -7 142 l-8 41 54 20 c30 12 157 55 283 96 126 42 237 81 246 86 10 6 28 10 42 10 46 0 49 -16 42 -213 -3 -100 -9 -268 -13 -374 l-6 -192 34 -5 c40 -6 113 -14 224 -26 44 -5 91 -12 104 -16 l24 -7 -7 119 c-3 65 -11 211 -16 324 -6 113 -12 235 -15 272 -5 62 -3 72 21 108 61 92 69 243 18 346 -43 87 -43 87 -95 123 -59 40 -123 45 -185 13 -52 -27 -80 -58 -118 -133 l-31 -63 -115 -33 c-63 -18 -144 -42 -180 -52 -36 -11 -92 -27 -125 -36 -58 -16 -232 -67 -287 -85 -24 -7 -31 -4 -48 20 -19 27 -20 44 -20 432 l0 403 33 39 c17 22 73 87 122 146 50 59 133 158 185 220 52 62 126 149 164 194 38 44 90 106 115 136 25 30 64 75 87 100 60 67 235 276 268 321 16 21 37 39 45 39 9 0 87 -80 173 -178z m2488 -1607 l0 -325 -22 -5 c-29 -6 -148 -22 -258 -35 -47 -6 -98 -13 -114 -16 -19 -4 -32 -1 -37 7 -5 8 -9 155 -8 327 1 252 4 315 15 326 9 9 49 16 111 21 54 3 121 10 148 14 28 5 76 9 108 10 l57 1 0 -325z m-615 -64 c0 -203 -3 -329 -10 -337 -6 -8 -47 -18 -95 -24 -47 -6 -134 -17 -195 -25 -60 -8 -136 -18 -167 -21 l-58 -7 0 346 c0 305 2 346 16 351 9 3 50 8 92 11 43 3 100 8 127 11 100 11 231 21 260 20 l30 -1 0 -324z m-3518 -131 c60 -14 144 -70 199 -134 145 -169 189 -402 92 -493 -82 -77 -197 -48 -323 82 -158 162 -213 405 -114 504 17 17 45 35 62 40 42 12 36 12 84 1z m4128 -650 l0 -325 -75 -13 c-120 -21 -171 -30 -228 -41 -74 -15 -119 -14 -125 3 -3 8 -6 154 -7 325 -1 359 -13 323 120 341 122 17 159 22 215 30 28 4 61 7 75 6 l25 -1 0 -325z m-608 -86 c2 -169 2 -318 -2 -331 -4 -16 -13 -23 -29 -23 -14 0 -48 -5 -78 -11 -206 -41 -401 -70 -410 -61 -4 4 -7 161 -6 347 l3 339 225 32 c124 17 234 34 245 36 45 10 47 -2 52 -328z"/>
  </g>
</svg>
