<svg xmlns="http://www.w3.org/2000/svg" viewBox="0 0 122.88 103.53">
  <path fill="white" fill-rule="evenodd" d="M5.47,0h111.93c3.01,0,5.47,2.46,5.47,5.47v92.58c0,3.01-2.46,5.47-5.47,5.47H5.47c-3.01,0-5.47-2.46-5.47-5.47V5.47C0,2.46,2.46,0,5.47,0L5.47,0zM31.84,38.55l17.79,18.42l2.14,2.13l-2.12,2.16L31.68,80.31l-5.07-5l15.85-16.15L26.81,43.6L31.84,38.55L31.84,38.55zM94.1,79.41H54.69v-6.84H94.1V79.41L94.1,79.41zM38.19,9.83c3.19,0,5.78,2.59,5.78,5.78s-2.59,5.78-5.78,5.78c-3.19,0-5.78-2.59-5.78-5.78S35,9.83,38.19,9.83L38.19,9.83zM18.95,9.83c3.19,0,5.78,2.59,5.78,5.78s-2.59,5.78-5.78,5.78c-3.19,0-5.78-2.59-5.78-5.78S15.75,9.83,18.95,9.83L18.95,9.83zM7.49,5.41h107.91c1.15,0,2.09,0.94,2.09,2.09v18.32H5.4V7.5C5.4,6.35,6.34,5.41,7.49,5.41L7.49,5.41z"/>
</svg>
